<svg xmlns="http://www.w3.org/2000/svg" viewBox="0 0 512 512">
  <defs>
    <linearGradient id="bg" x1="0%" y1="0%" x2="100%" y2="100%">
      <stop offset="0%" stop-color="#7C3AED"/>
      <stop offset="100%" stop-color="#4F46E5"/>
    </linearGradient>
  </defs>
  <rect width="512" height="512" rx="110" fill="#09090B"/>
  <rect x="28" y="28" width="456" height="456" rx="96" fill="url(#bg)"/>
  <path d="M170 176c0-26 20-46 52-46h81c29 0 49 18 49 43 0 18-10 31-26 39 25 9 39 27 39 53 0 36-27 59-70 59h-83c-24 0-42-18-42-42V176zm78 21v38h44c12 0 19-7 19-18s-7-20-21-20h-42zm0 86v41h49c16 0 25-7 25-20 0-14-10-21-28-21h-46z" fill="#F8FAFC"/>
</svg>
